<?xml version="1.0" encoding="utf-8"?>
<!-- Svg Vector Icons : http://www.onlinewebfonts.com/icon -->
<!DOCTYPE svg PUBLIC "-//W3C//DTD SVG 1.1//EN" "http://www.w3.org/Graphics/SVG/1.1/DTD/svg11.dtd">
<svg version="1.1" xmlns="http://www.w3.org/2000/svg" xmlns:xlink="http://www.w3.org/1999/xlink" x="0px" y="0px" viewBox="0 0 1000 1000" enable-background="new 0 0 1000 1000" xml:space="preserve">
<metadata> Svg Vector Icons : http://www.onlinewebfonts.com/icon </metadata>
<g><path d="M676,579c128.8,65.6,220.9,153.2,256.5,310.5c4.9,21.6,13.1,51.5,7.5,70.5c-10.8,36.8-62.9,36.3-79.5,10.5c-11.2-17.4-11.5-49.5-16.5-69c-27.9-108.8-95.2-188.5-189-234c-47.3-22.9-108.8-35.1-177-34.5c-101.4,1-182.8,56.3-234,109.5c-43.7,45.3-75.3,95.2-91.5,166.5c-7.9,34.8-6.4,81-51,81C26.2,990,68.3,867,85,825c45.4-114.5,130-195.6,237-244.5c-69.5-57.2-142-139-133.5-279c9.7-159.6,137.9-281.6,298.5-291C580.7,5,666.4,48.9,716.5,99c53.6,53.6,93.9,124.4,94.5,222C811.7,443,751,521.7,676,579z M329.5,178.5c-29.5,35.4-58.5,95.9-51,166.5C291.1,464.7,388.9,554.6,520,544.5c107.3-8.3,193.3-95.7,201-201c3.9-53.4-3.3-81.5-22.5-120C662.1,150.5,585.7,90.8,475,102C408,108.7,358.8,143.3,329.5,178.5z"/></g>
</svg>